<svg xmlns="http://www.w3.org/2000/svg" xmlns:xlink="http://www.w3.org/1999/xlink" width="550.858" height="82.45" viewBox="0 0 550.858 82.45">
  <defs>
    <clipPath id="clip-path">
      <rect id="Rectangle_1" data-name="Rectangle 1" width="550.858" height="82.45" transform="translate(0 0)" fill="none"/>
    </clipPath>
  </defs>
  <g id="Group_2" data-name="Group 2" transform="translate(0 0)">
    <g id="Group_1" data-name="Group 1" clip-path="url(#clip-path)">
      <path id="Path_1" data-name="Path 1" d="M21.437,66.348A65.547,65.547,0,0,1,9.41,65.282,33.5,33.5,0,0,1,0,62.275l3.493-16.3a43.656,43.656,0,0,0,9.262,3.492A38.542,38.542,0,0,0,22.5,50.828a19.664,19.664,0,0,0,6.16-.776,3.659,3.659,0,0,0,2.669-2.91q.481-2.422-2.426-3.54T20.371,40.45a25.168,25.168,0,0,1-9.6-5.772,12.3,12.3,0,0,1-3.3-8.876,20.009,20.009,0,0,1,.582-4.656Q10.184,11.058,17.6,6.5T38.9,1.94a58.307,58.307,0,0,1,6.937.436q3.636.437,6.934,1.068A40.384,40.384,0,0,1,58.3,4.85L54.805,21.244a43.5,43.5,0,0,0-8.439-2.765,36.544,36.544,0,0,0-7.372-.824,43.27,43.27,0,0,0-4.657.242A9.118,9.118,0,0,0,30.7,18.964a2.766,2.766,0,0,0-1.408,2.571q0,1.552,2.28,2.375T38.8,26.19q8.242,2.425,11.4,6.5A14.675,14.675,0,0,1,53.349,41.9a23.648,23.648,0,0,1-.582,5.14,22.146,22.146,0,0,1-9.456,14.017q-7.619,5.287-21.874,5.286" fill="#fff"/>
      <path id="Path_2" data-name="Path 2" d="M73.72,66.348q-7.664,0-11.494-3.638a12.676,12.676,0,0,1-3.832-9.651,22.469,22.469,0,0,1,.582-4.85l2.91-13.58H56.163l3.2-15.228h5.723l1.94-9.216L88.852,5.626,85.942,19.4h9.991L92.15,34.629H82.741l-2.619,12.32c-.065.324-.114.629-.145.92a7.148,7.148,0,0,0-.049.826q0,2.908,4.462,2.909a20.74,20.74,0,0,0,6.014-.97L87.493,64.02a33.394,33.394,0,0,1-6.353,1.746,43.362,43.362,0,0,1-7.42.582" fill="#fff"/>
      <path id="Path_3" data-name="Path 3" d="M107.669,66.348q-6.306,0-9.991-3.443t-3.686-9.652c0-.711.031-1.469.1-2.279a16.836,16.836,0,0,1,.388-2.474l6.208-29.1H121.54l-5.724,27.062a6.3,6.3,0,0,0-.145.824,6.635,6.635,0,0,0-.048.728,2.583,2.583,0,0,0,1.019,2.328,5.12,5.12,0,0,0,2.861.679,9.475,9.475,0,0,0,3.686-.728,8.9,8.9,0,0,0,2.91-1.89l6.111-29h20.855l-9.7,45.977H123.771l.1-3.007a29.371,29.371,0,0,1-7.178,2.862,34.91,34.91,0,0,1-9.021,1.115" fill="#fff"/>
      <path id="Path_4" data-name="Path 4" d="M170.524,66.348q-7.664,0-12.465-4.219t-4.8-12.659a29.337,29.337,0,0,1,.194-3.347q.193-1.7.582-3.54,2.714-12.707,9.651-18.43t17.8-5.723a28.649,28.649,0,0,1,5.772.63,14.486,14.486,0,0,1,4.607,1.6L196.326,0h20.855L203.31,65.378H185.268l-.291-3.3a26.867,26.867,0,0,1-6.6,3.152,25.819,25.819,0,0,1-7.857,1.116m9.215-14.938a8.924,8.924,0,0,0,3.249-.582,13.013,13.013,0,0,0,2.862-1.552L188.76,35.4a6.882,6.882,0,0,0-5.238-1.94,6.672,6.672,0,0,0-5.335,2.133q-1.844,2.136-2.91,7.179a20.569,20.569,0,0,0-.582,4.268,4.032,4.032,0,0,0,1.261,3.394,6.139,6.139,0,0,0,3.783.971" fill="#fff"/>
      <path id="Path_5" data-name="Path 5" d="M226.784,82.45q-1.553,0-4.269-.146t-5.286-.388q-2.571-.243-3.831-.437L216.4,67.415a52.809,52.809,0,0,0,10.476,1.261q8.34,0,12.125-1.5t4.171-4.123l.291-1.649a30.077,30.077,0,0,1-6.984,2.862,32.641,32.641,0,0,1-8.827,1.115q-6.5,0-10.137-3.347t-3.637-9.555a22.841,22.841,0,0,1,.582-4.946l5.917-28.13h20.855l-5.529,26.093c-.066.324-.113.63-.146.921a8.192,8.192,0,0,0-.049.922,2.28,2.28,0,0,0,.971,2.134,5.763,5.763,0,0,0,2.909.582,9,9,0,0,0,3.493-.776,11.941,11.941,0,0,0,3.1-1.844L251.907,19.4h20.855l-8.246,38.8A32.013,32.013,0,0,1,258.89,71,26.137,26.137,0,0,1,247.1,79.443q-7.71,3-20.321,3.007" fill="#fff"/>
      <path id="Path_6" data-name="Path 6" d="M323.685,66.348q-13.483,0-21.389-6.062t-7.906-17.8a41.279,41.279,0,0,1,.873-8.052q3.4-15.809,14.308-24.152T338.914,1.94q11.25,0,19.109,2.813L354.24,22.5a32.737,32.737,0,0,0-8-2.231,63.885,63.885,0,0,0-9.652-.679q-8.245,0-13.337,3.4t-6.742,11.445q-.387,1.844-.582,3.4a23.417,23.417,0,0,0-.193,2.911q0,4.461,2.716,6.208t8.924,1.746a26.852,26.852,0,0,0,7.566-.971l1.357-6.4H324.946l2.716-12.707h28.711l-6.79,31.815a42.166,42.166,0,0,1-10.766,4.22,60.271,60.271,0,0,1-15.132,1.7" fill="#fff"/>
      <path id="Path_7" data-name="Path 7" d="M373.154,66.348q-7.761,0-12.318-4.171t-4.56-11.834q0-1.455.146-3.007a20.7,20.7,0,0,1,.534-3.1q2.617-12.8,10.136-19.3a25.952,25.952,0,0,1,17.508-6.5,17.26,17.26,0,0,1,6.4,1.018,11.591,11.591,0,0,1,3.88,2.377l.484-2.425h20.855l-9.7,45.978H388.48l-.291-3.3a26.444,26.444,0,0,1-6.692,3.152,28.239,28.239,0,0,1-8.343,1.116m9.8-14.938a10.2,10.2,0,0,0,3.59-.582,6.985,6.985,0,0,0,2.521-1.552l2.91-13.871a4.19,4.19,0,0,0-1.794-1.455,7.242,7.242,0,0,0-2.862-.485,7.124,7.124,0,0,0-5.819,2.764,18.582,18.582,0,0,0-3.3,8c-.064.582-.145,1.117-.242,1.6a6.752,6.752,0,0,0-.146,1.309,3.754,3.754,0,0,0,1.359,3.347,6.665,6.665,0,0,0,3.782.922" fill="#fff"/>
      <path id="Path_8" data-name="Path 8" d="M414.282,65.378l9.7-45.978h19.3l-.194,3.3a30.5,30.5,0,0,1,7.081-3.1,28.888,28.888,0,0,1,8.341-1.164q4.56,0,6.6,1.213a7.277,7.277,0,0,1,3.008,3.443,34.854,34.854,0,0,1,7.76-3.4,32.159,32.159,0,0,1,9.311-1.261q6.207,0,9.409,3.2t3.2,8.924a25.62,25.62,0,0,1-.582,5.141l-6.305,29.682H470.444l5.724-27.257a2.488,2.488,0,0,0,.193-.922v-.824q0-2.521-3.3-2.522a8.627,8.627,0,0,0-2.716.485,7.005,7.005,0,0,0-2.521,1.455,17.563,17.563,0,0,1-.194,2.57c-.131.873-.291,1.8-.486,2.765l-5.14,24.25H442.7l5.819-27.645q.1-.485.146-.921a7.573,7.573,0,0,0,.049-.825q0-2.131-2.716-2.134a7.694,7.694,0,0,0-5.53,2.522l-6.111,29Z" fill="#fff"/>
      <path id="Path_9" data-name="Path 9" d="M522.438,66.347a32.715,32.715,0,0,1-12.076-2.085,18.709,18.709,0,0,1-8.343-6.16,16.333,16.333,0,0,1-3.055-10.088,27.784,27.784,0,0,1,.582-5.431,39.459,39.459,0,0,1,5.092-12.756,23.171,23.171,0,0,1,9.6-8.391q6.157-3,15.859-3.007,9.6,0,15.181,4.8a15.785,15.785,0,0,1,5.577,12.562,18,18,0,0,1-.146,2.231c-.1.775-.211,1.552-.34,2.327l-1.648,7.954H517.491a5.276,5.276,0,0,0,3.492,4.075q3.006,1.26,9.506,1.26a49.035,49.035,0,0,0,8.439-.727,39.6,39.6,0,0,0,6.79-1.7L543.2,63.049q-7.566,3.3-20.758,3.3m-3.589-28.9h15.326l.194-1.262a3.86,3.86,0,0,0-1.212-3.492q-1.506-1.455-5.093-1.454a10.647,10.647,0,0,0-6.4,1.648,7.2,7.2,0,0,0-2.813,4.56" fill="#fff"/>
    </g>
  </g>
</svg>
